<?xml version="1.0" encoding="UTF-8" standalone="no"?>
<!-- Created with Inkscape (http://www.inkscape.org/) -->
<svg xmlns:dc="http://purl.org/dc/elements/1.1/" xmlns:cc="http://creativecommons.org/ns#" xmlns:rdf="http://www.w3.org/1999/02/22-rdf-syntax-ns#" xmlns:svg="http://www.w3.org/2000/svg" xmlns="http://www.w3.org/2000/svg" xmlns:sodipodi="http://sodipodi.sourceforge.net/DTD/sodipodi-0.dtd" xmlns:inkscape="http://www.inkscape.org/namespaces/inkscape" width="759.71552" height="526.27667" id="svg2" version="1.1" inkscape:version="0.48.1 " sodipodi:docname="geometric_frame.svg">
  <defs id="defs4"/>
  <sodipodi:namedview id="base" pagecolor="#ffffff" bordercolor="#666666" borderopacity="1.0" inkscape:pageopacity="0.0" inkscape:pageshadow="2" inkscape:zoom="0.8422788" inkscape:cx="271.51576" inkscape:cy="369.31587" inkscape:document-units="px" inkscape:current-layer="layer1" showgrid="false" showguides="true" inkscape:guide-bbox="true" inkscape:window-width="1680" inkscape:window-height="1030" inkscape:window-x="-8" inkscape:window-y="-8" inkscape:window-maximized="1" showborder="false" inkscape:showpageshadow="false" fit-margin-top="0" fit-margin-left="0" fit-margin-right="0" fit-margin-bottom="0">
    <sodipodi:guide orientation="1,0" position="-5001.8436,-33.6696" id="guide3644"/>
    <inkscape:grid type="xygrid" id="grid4666" empspacing="5" visible="true" enabled="true" snapvisiblegridlinesonly="true"/>
  </sodipodi:namedview>
  <g inkscape:label="Layer 1" inkscape:groupmode="layer" id="layer1" transform="translate(364.08673,-314.62889)">
    <path style="fill:#000000;fill-opacity:1;stroke:none" d="m 161.66256,314.94901 -104.875001,0.0937 -19.40625,19.625 -19.65625,-20.01144 0,10 19.6875,19.82394 22.28125,-22.25 94.750001,0 0,94.46875 -22.25,22.25 19.44102,19.70731 10.02773,0.0114 -19.6875,-19.65621 19.65625,-19.40625 z m -98.937501,14.03125 -20.5,20.25 4.875,4.90625 0.5,0.46875 -0.0312,0.0312 14.78125,14.78125 44.781251,0.0937 0.125,44.53125 15.05378,15.02852 c 0,0 3.41238,3.61271 4.97752,5.00273 l 20.40625,-20.40625 -0.375,-84.46875 z M 122.36556,438.9603 c 0,0 -4.97634,-4.97635 -4.97224,-4.97224 l -17.26201,-17.28905 0,-39.90625 -40.437501,-0.25 -17.03125,-17.03125 c 0,0 -5.48605,-5.22054 -5.5,-5.28125 l -19.4375,19.42606 0,10 c 0,0.4375 19.5625,-20 19.5625,-20 0.4375,-0.0272 19.5,19.82394 19.5,19.82394 l 36.40625,0 0,36.125 19.326121,19.25619 -19.794871,19.79487 10.031251,0.0114 z M 17.725059,334.60526 l 0,29.5625 14.78125,-14.78125 z m 109.562501,109.25 -14.5625,14.80106 29,0 z" id="path3807" inkscape:connector-curvature="0" sodipodi:nodetypes="ccccccccccccccccccccccccccccccccccccccccccccccccccccc" inkscape:export-filename="C:\Users\Daniel Fowler\Documents\AndriodDocs\NinePatch\frame.png" inkscape:export-xdpi="77.589996" inkscape:export-ydpi="77.589996"/>
    <path id="path3715-4" style="fill:#000000;fill-opacity:1;stroke:none" d="m 92.943809,658.55423 19.718751,19.43159 -19.937501,19.6819 10.000001,0 19.80139,-19.64678 -23.483161,-23.40935 -0.31823,-76.09919 -6,0 z m 11.720281,-7.94785 22.60217,22.66856 22.60214,-22.66856 -0.14334,-72.09398 -45,0 z m 7.90472,47.06134 29.59375,0 -14.78125,-14.83184 z m 19.5,-19.61933 19.65625,19.61933 10,0 -19.78125,-19.58802 19.82006,-19.84757 -3.03881,-6.86062 -4.04714,4.07943 z m 23.65625,-23.67295 6,3.87738 c 0,0 0.0152,-56.35638 0,-79.74042 l -6,0 z" inkscape:connector-curvature="0" sodipodi:nodetypes="cccccccccccccccccccccccccccccccc" inkscape:export-filename="C:\Users\Daniel Fowler\Documents\AndriodDocs\NinePatch\frame.png" inkscape:export-xdpi="77.589996" inkscape:export-ydpi="77.589996"/>
    <path id="path3715-8" style="fill:#000000;fill-opacity:1;stroke:none" d="m 161.50631,497.36522 -19.71875,-19.64199 19.9375,-19.89503 -10,0 -19.8014,19.85953 23.48317,23.66283 0.31823,77.93537 6,0 z m -11.72028,8.03392 -22.60218,-22.91402 -22.60213,22.91402 0.14334,73.88679 45,0 z m -7.90472,-47.57094 -29.59375,0 14.78125,14.99243 z m -19.5,19.83177 -19.65625,-19.83177 -10.000001,0 19.781251,19.80015 -19.820061,20.06246 3.03881,6.93491 4.04714,-4.12361 z m -23.656251,23.92932 -6,-3.91938 c 0,0 -0.0152,57.97878 0,81.61602 l 6,0 z" inkscape:connector-curvature="0" sodipodi:nodetypes="cccccccccccccccccccccccccccccccc" inkscape:export-filename="C:\Users\Daniel Fowler\Documents\AndriodDocs\NinePatch\frame.png" inkscape:export-xdpi="77.589996" inkscape:export-ydpi="77.589996"/>
    <path id="path3715-9" style="fill:#000000;fill-opacity:1;stroke:none" d="m -22.887295,383.44897 20.4711315,-19.71876 20.7348505,19.93751 0,-10 -20.6978562,-19.8014 -24.6616898,23.48317 -80.170361,0.31823 0,6 z m -8.373056,-11.72029 23.8813048,-22.60217 -23.8813048,-22.60213 -75.950869,0.14333 0,45 z m 49.579038,-7.90472 0,-29.59375 -15.6253087,14.78125 z m -20.668921,-19.5 20.668921,-19.65625 0,-10 -20.6359561,19.78125 -20.9093579,-19.82006 -7.227654,3.03881 4.297681,4.04714 z m -24.939427,-23.65625 4.084828,-6 c 0,0 -59.371342,-0.0152 -84.006387,0 l 0,6 z" inkscape:connector-curvature="0" sodipodi:nodetypes="cccccccccccccccccccccccccccccccc" inkscape:export-filename="C:\Users\Daniel Fowler\Documents\AndriodDocs\NinePatch\frame.png" inkscape:export-xdpi="77.589996" inkscape:export-ydpi="77.589996"/>
    <path id="path3715-5" style="fill:#000000;fill-opacity:1;stroke:none" d="m -181.92943,314.84765 -19.07238,19.71875 -19.31808,-19.9375 0,10 19.28362,19.8014 22.97661,-23.48317 74.69249,-0.31823 0,-6 z m 7.80096,11.72028 -22.24954,22.60217 22.24954,22.60214 70.7613,-0.14334 0,-45 z m -46.17015,7.87991 -4e-5,29.44956 14.53606,-14.61225 z m 19.23539,19.52481 -19.25666,19.65625 0,10 19.22594,-19.78125 19.48068,19.82006 6.7338,-3.03881 -4.00403,-4.04714 z m 23.23536,23.65625 -3.80571,6 c 0,0 55.31464,0.0152 78.26641,0 l 0,-6 z" inkscape:connector-curvature="0" sodipodi:nodetypes="cccccccccccccccccccccccccccccccc" inkscape:export-filename="C:\Users\Daniel Fowler\Documents\AndriodDocs\NinePatch\frame.png" inkscape:export-xdpi="77.589996" inkscape:export-ydpi="77.589996"/>
    <path style="fill:#000000;fill-opacity:1;stroke:none" d="m -363.50821,314.76307 0.0937,104.875 19.625,19.40625 -20.01144,19.65625 10,0 19.82394,-19.6875 -22.25,-22.28125 0,-94.75 94.46875,0 22.25,22.25 19.70731,-19.44102 0.0114,-10.02773 -19.65621,19.6875 -19.40625,-19.65625 z m 14.03125,98.9375 20.25,20.5 4.90625,-4.875 0.46875,-0.5 0.0312,0.0312 14.78125,-14.78125 0.0937,-44.78125 44.53125,-0.125 15.02853,-15.05378 c 0,0 3.61271,-3.41238 5.00272,-4.97752 l -20.40625,-20.40625 -84.46875,0.375 z m 109.98005,-59.6405 c 0,0 -4.97636,4.97634 -4.97224,4.97224 l -17.28905,17.26201 -39.90625,0 -0.25,40.4375 -17.03125,17.03125 c 0,0 -5.22054,5.48605 -5.28125,5.5 l 19.42606,19.4375 10,0 c 0.4375,0 -20,-19.5625 -20,-19.5625 -0.0272,-0.4375 19.82394,-19.5 19.82394,-19.5 l 0,-36.40625 36.125,0 19.25619,-19.32612 19.79487,19.79487 0.0114,-10.03125 z m -104.35505,104.6405 29.5625,0 -14.78125,-14.78125 z m 109.25,-109.5625 14.76016,14.88856 0,-29.44956 z" id="path3807-5" inkscape:connector-curvature="0" sodipodi:nodetypes="ccccccccccccccccccccccccccccccccccccccccccccccccccccc" inkscape:export-filename="C:\Users\Daniel Fowler\Documents\AndriodDocs\NinePatch\frame.png" inkscape:export-xdpi="77.589996" inkscape:export-ydpi="77.589996"/>
    <path id="path3715-4-8" style="fill:#000000;fill-opacity:1;stroke:none" d="m -363.82917,657.99748 19.71875,19.51297 -19.9375,19.76435 10,0 19.80139,-19.72908 -23.48316,-23.50739 -0.31823,-76.41796 -6,0 z m 11.72028,-7.98115 22.60217,22.76352 22.60214,-22.76352 -0.14334,-72.39596 -45,0 z m 7.90472,47.25847 29.59375,0 -14.78125,-14.89396 z m 19.5,-19.7015 19.65625,19.7015 10,0 -19.78125,-19.67008 19.82006,-19.93069 -3.03881,-6.88936 -4.04714,4.09653 z m 23.65625,-23.77214 6,3.89363 c 0,0 0.0152,-56.59244 0,-80.07442 l -6,0 z" inkscape:connector-curvature="0" sodipodi:nodetypes="cccccccccccccccccccccccccccccccc" inkscape:export-filename="C:\Users\Daniel Fowler\Documents\AndriodDocs\NinePatch\frame.png" inkscape:export-xdpi="77.589996" inkscape:export-ydpi="77.589996"/>
    <path id="path3715-8-0" style="fill:#000000;fill-opacity:1;stroke:none" d="m -295.26667,497.3373 -19.71875,-19.40625 19.9375,-19.65625 -10,0 -19.8014,19.62118 23.48317,23.37882 0.31823,77 6,0 z m -11.72028,7.9375 -22.60218,-22.63901 -22.60213,22.63901 0.14334,73 45,0 z m -7.90472,-47 -29.59375,0 14.78125,14.8125 z m -19.5,19.59375 -19.65625,-19.59375 -10,0 19.78125,19.5625 -19.82006,19.82168 3.03881,6.85168 4.04714,-4.07412 z m -23.65625,23.64211 -6,-3.87233 c 0,0 -0.0152,57.28292 0,80.63647 l 6,0 z" inkscape:connector-curvature="0" sodipodi:nodetypes="cccccccccccccccccccccccccccccccc" inkscape:export-filename="C:\Users\Daniel Fowler\Documents\AndriodDocs\NinePatch\frame.png" inkscape:export-xdpi="77.589996" inkscape:export-ydpi="77.589996"/>
    <path style="fill:#000000;fill-opacity:1;stroke:none" d="m 161.40944,840.58545 -104.874951,-0.0937 -19.40625,-19.625 -19.65625,20.01144 0,-10 19.6875,-19.82394 22.28125,22.25 94.750001,0 0,-94.46875 -22.25,-22.25 19.441,-19.70731 10.0277,-0.0114 -19.68745,19.65621 19.65625,19.40625 z m -98.937451,-14.03125 -20.5,-20.25 4.875,-4.90625 0.5,-0.46875 -0.0312,-0.0312 14.78125,-14.78125 44.781251,-0.0937 0.125,-44.53125 15.05378,-15.02852 c 0,0 3.41238,-3.61271 4.97752,-5.00273 l 20.40625,20.40625 -0.375,84.46875 z M 122.11249,716.57416 c 0,0 -4.97634,4.97635 -4.97224,4.97224 l -17.262011,17.28905 0,39.90625 -40.4375,0.25 -17.03125,17.03125 c 0,0 -5.48605,5.22054 -5.5,5.28125 l -19.4375,-19.42606 0,-10 c 0,-0.4375 19.5625,20 19.5625,20 0.4375,0.0272 19.5,-19.82394 19.5,-19.82394 l 36.40625,0 0,-36.125 19.326121,-19.25619 -19.794871,-19.79487 10.031251,-0.0114 z M 17.471989,820.9292 l 0,-29.5625 14.78125,14.78125 z m 109.562501,-109.25 -14.5625,-14.80106 29,0 z" id="path3807-0" inkscape:connector-curvature="0" sodipodi:nodetypes="ccccccccccccccccccccccccccccccccccccccccccccccccccccc" inkscape:export-filename="C:\Users\Daniel Fowler\Documents\AndriodDocs\NinePatch\frame.png" inkscape:export-xdpi="77.589996" inkscape:export-ydpi="77.589996"/>
    <path id="path3715-9-4" style="fill:#000000;fill-opacity:1;stroke:none" d="m -21.702054,772.08549 19.786793,19.71876 20.04168,-19.93751 0,10 -20.0059252,19.8014 -23.8372538,-23.48317 -77.49028,-0.31823 0,-6 z m -8.093144,11.72029 23.0829556,22.60217 -23.0829556,22.60213 -73.411842,-0.14333 0,-45 z m 47.921617,7.90472 0,29.59375 L 3.0234619,806.523 z m -19.9779582,19.5 19.9779582,19.65625 0,10 -19.9460973,-19.78125 -20.2103647,19.82006 -6.986034,-3.03881 4.154014,-4.04714 z m -24.1057088,23.65625 3.948277,6 c 0,0 -57.386575,0.0152 -81.198069,0 l 0,-6 z" inkscape:connector-curvature="0" sodipodi:nodetypes="cccccccccccccccccccccccccccccccc" inkscape:export-filename="C:\Users\Daniel Fowler\Documents\AndriodDocs\NinePatch\frame.png" inkscape:export-xdpi="77.589996" inkscape:export-ydpi="77.589996"/>
    <path id="path3715-5-8" style="fill:#000000;fill-opacity:1;stroke:none" d="m -181.40305,840.68679 -19.45961,-19.71875 -19.7103,19.9375 0,-10 19.67514,-19.8014 23.4431,23.48317 76.20899,0.31823 0,6 z m 7.95934,-11.72028 -22.70128,-22.60217 22.70128,-22.60214 72.19798,0.14334 0,45 z m -47.10755,-7.87991 -4e-5,-29.44956 14.83119,14.61225 z m 19.62593,-19.52481 -19.64763,-19.65625 0,-10 19.61629,19.78125 19.87619,-19.82006 6.87053,3.03881 -4.08533,4.04714 z m 23.70712,-23.65625 -3.88298,-6 c 0,0 56.43769,-0.0152 79.85546,0 l 0,6 z" inkscape:connector-curvature="0" sodipodi:nodetypes="cccccccccccccccccccccccccccccccc" inkscape:export-filename="C:\Users\Daniel Fowler\Documents\AndriodDocs\NinePatch\frame.png" inkscape:export-xdpi="77.589996" inkscape:export-ydpi="77.589996"/>
    <path style="fill:#000000;fill-opacity:1;stroke:none" d="m -363.76128,840.77137 0.0937,-104.875 19.625,-19.40625 -20.01144,-19.65625 10,0 19.82394,19.6875 -22.25,22.28125 0,94.75 94.46875,0 22.25,-22.25 19.70731,19.44102 0.0114,10.02773 -19.65621,-19.6875 -19.40625,19.65625 z m 14.03125,-98.9375 20.25,-20.5 4.90625,4.875 0.46875,0.5 0.0312,-0.0312 14.78125,14.78125 0.0937,44.78125 44.53125,0.125 15.02853,15.05378 c 0,0 3.61271,3.41238 5.00272,4.97752 l -20.40625,20.40625 -84.46875,-0.375 z m 109.98005,59.6405 c 0,0 -4.97636,-4.97634 -4.97224,-4.97224 l -17.28905,-17.26201 -39.90625,0 -0.25,-40.4375 -17.03125,-17.03125 c 0,0 -5.22054,-5.48605 -5.28125,-5.5 l 19.42606,-19.4375 10,0 c 0.4375,0 -20,19.5625 -20,19.5625 -0.0272,0.4375 19.82394,19.5 19.82394,19.5 l 0,36.40625 36.125,0 19.25619,19.32612 19.79487,-19.79487 0.0114,10.03125 z m -104.35505,-104.6405 29.5625,0 -14.78125,14.78125 z m 109.25,109.5625 14.76016,-14.88856 0,29.44956 z" id="path3807-5-8" inkscape:connector-curvature="0" sodipodi:nodetypes="ccccccccccccccccccccccccccccccccccccccccccccccccccccc" inkscape:export-filename="C:\Users\Daniel Fowler\Documents\AndriodDocs\NinePatch\frame.png" inkscape:export-xdpi="77.589996" inkscape:export-ydpi="77.589996"/>
  </g>
  <metadata>
    <rdf:RDF>
      <cc:Work>
        <dc:format>image/svg+xml</dc:format>
        <dc:type rdf:resource="http://purl.org/dc/dcmitype/StillImage"/>
        <cc:license rdf:resource="http://creativecommons.org/licenses/publicdomain/"/>
        <dc:publisher>
          <cc:Agent rdf:about="http://openclipart.org/">
            <dc:title>Open Clip Art Library</dc:title>
          </cc:Agent>
        </dc:publisher>
        <dc:title>Geometric Box Frame or Border</dc:title>
        <dc:date>2011-09-10T16:12:45</dc:date>
        <dc:description>A simple geometric black and white border for use as a box or frame.</dc:description>
        <dc:source>http://openclipart.org/detail/159841/geometric-box-frame-or-border-by-gr8dan</dc:source>
        <dc:creator>
          <cc:Agent>
            <dc:title>GR8DAN</dc:title>
          </cc:Agent>
        </dc:creator>
        <dc:subject>
          <rdf:Bag>
            <rdf:li>angular</rdf:li>
            <rdf:li>black</rdf:li>
            <rdf:li>border</rdf:li>
            <rdf:li>box</rdf:li>
            <rdf:li>clip art</rdf:li>
            <rdf:li>clipart</rdf:li>
            <rdf:li>diamond</rdf:li>
            <rdf:li>frame</rdf:li>
            <rdf:li>geometric</rdf:li>
            <rdf:li>plain</rdf:li>
            <rdf:li>points</rdf:li>
            <rdf:li>sharpe</rdf:li>
            <rdf:li>simple</rdf:li>
            <rdf:li>white</rdf:li>
          </rdf:Bag>
        </dc:subject>
      </cc:Work>
      <cc:License rdf:about="http://creativecommons.org/licenses/publicdomain/">
        <cc:permits rdf:resource="http://creativecommons.org/ns#Reproduction"/>
        <cc:permits rdf:resource="http://creativecommons.org/ns#Distribution"/>
        <cc:permits rdf:resource="http://creativecommons.org/ns#DerivativeWorks"/>
      </cc:License>
    </rdf:RDF>
  </metadata>
</svg>
